<svg width="22" height="22" viewBox="0 0 22 22" fill="none" xmlns="http://www.w3.org/2000/svg">
<path d="M10.2664 18.334H5.04139C4.58305 18.334 4.12472 18.059 3.94139 17.6923C3.66639 17.3257 3.66639 16.959 3.84972 16.5007C4.94972 13.934 7.42475 12.1923 10.2664 12.1923C13.1081 12.1923 15.4914 9.80898 15.4914 6.96732C15.4914 4.12565 13.1081 1.83398 10.1748 1.83398C7.33308 1.83398 4.94972 4.21732 4.94972 7.05898C4.94972 8.70898 5.68305 10.1757 6.87475 11.0923C4.76639 11.9173 2.93305 13.659 2.01639 15.859C1.64972 16.7757 1.74139 17.8757 2.29139 18.7007C2.93305 19.6173 3.84972 20.1673 4.94972 20.1673H10.1748C10.7248 20.1673 11.0914 19.8007 11.0914 19.2507C11.0914 18.7007 10.7248 18.334 10.2664 18.334ZM6.78308 7.05898C6.78308 5.22565 8.34142 3.66732 10.1748 3.66732C12.0081 3.66732 13.5664 5.22565 13.5664 7.05898C13.5664 8.89232 12.0081 10.4507 10.1748 10.4507C8.34142 10.4507 6.78308 8.89232 6.78308 7.05898Z" fill="black"/>
<path d="M19.2495 14.9406H16.8661V12.5573C16.8661 12.0073 16.4995 11.6406 15.9495 11.6406C15.3995 11.6406 15.0328 12.0073 15.0328 12.5573V14.9406H12.6495C12.0995 14.9406 11.7328 15.3073 11.7328 15.8573C11.7328 16.4073 12.0995 16.774 12.6495 16.774H15.0328V19.1573C15.0328 19.7073 15.3995 20.074 15.9495 20.074C16.4995 20.074 16.8661 19.7073 16.8661 19.1573V16.774H19.2495C19.7995 16.774 20.1661 16.4073 20.1661 15.8573C20.1661 15.3073 19.7995 14.9406 19.2495 14.9406Z" fill="black"/>
</svg>
