<svg width="22" height="22" viewBox="0 0 22 22" fill="none" xmlns="http://www.w3.org/2000/svg">
<path d="M10.2664 18.333H5.04139C4.58305 18.333 4.12472 18.058 3.94139 17.6913C3.66639 17.3247 3.66639 16.958 3.84972 16.4997C4.94972 13.933 7.42475 12.1913 10.2664 12.1913C13.1081 12.1913 15.4914 9.80801 15.4914 6.96634C15.4914 4.12467 13.1081 1.83301 10.1748 1.83301C7.33308 1.83301 4.94972 4.21634 4.94972 7.05801C4.94972 8.70801 5.68305 10.1747 6.87475 11.0913C4.76639 11.9163 2.93305 13.658 2.01639 15.858C1.64972 16.7747 1.74139 17.8747 2.29139 18.6997C2.93305 19.6163 3.84972 20.1663 4.94972 20.1663H10.1748C10.7248 20.1663 11.0914 19.7997 11.0914 19.2497C11.0914 18.6997 10.7248 18.333 10.2664 18.333ZM6.78308 7.05801C6.78308 5.22467 8.34142 3.66634 10.1748 3.66634C12.0081 3.66634 13.5664 5.22467 13.5664 7.05801C13.5664 8.89134 12.0081 10.4497 10.1748 10.4497C8.34142 10.4497 6.78308 8.89134 6.78308 7.05801Z" fill="black"/>
<path d="M19.7995 11.7338C19.3411 11.4588 18.7911 11.5505 18.5161 12.0088L14.6661 17.6921L13.1994 15.7671C12.9244 15.4005 12.2827 15.3088 11.9161 15.5838C11.5494 15.8588 11.4578 16.5005 11.7328 16.8671L14.0245 19.8921C14.2078 20.1671 14.4828 20.2588 14.7578 20.2588C15.0328 20.2588 15.3077 20.0755 15.4911 19.8921L19.9827 13.1088C20.2577 12.5588 20.1661 12.0088 19.7995 11.7338Z" fill="black"/>
</svg>
