<svg width="20" height="21" viewBox="0 0 20 21" fill="none" xmlns="http://www.w3.org/2000/svg">
<g clip-path="url(#clip0_166_117)">
<path d="M14.4447 2.86319C15.478 2.86319 15.9947 2.86319 16.4186 2.96077C17.5688 3.22556 18.4673 3.99745 18.7756 4.98566C18.8891 5.34982 18.8891 5.79368 18.8891 6.68137V15.4632C18.8891 17.067 18.8891 17.8688 18.5258 18.4815C18.2062 19.0203 17.6963 19.4583 17.0691 19.7329C16.356 20.045 15.4227 20.045 13.5558 20.045H6.44466C4.57782 20.045 3.64439 20.045 2.93136 19.7329C2.30415 19.4583 1.79422 19.0203 1.47464 18.4815C1.11133 17.8688 1.11133 17.067 1.11133 15.4632V6.68137C1.11133 5.79368 1.11133 5.34982 1.22491 4.98566C1.53313 3.99745 2.43163 3.22556 3.58193 2.96077C4.00582 2.86319 4.52247 2.86319 5.55577 2.86319M6.66688 13.3632L8.88911 15.2723L13.8891 10.9768M7.33355 4.77228H12.6669C13.2892 4.77228 13.6003 4.77228 13.838 4.66825C14.0471 4.57673 14.217 4.4307 14.3236 4.25109C14.4447 4.04691 14.4447 3.7796 14.4447 3.24501V2.48137C14.4447 1.94678 14.4447 1.67948 14.3236 1.47529C14.217 1.29569 14.0471 1.14966 13.838 1.05814C13.6003 0.954102 13.2892 0.954102 12.6669 0.954102H7.33355C6.71127 0.954102 6.40013 0.954102 6.16245 1.05814C5.95338 1.14966 5.78341 1.29569 5.67687 1.47529C5.55577 1.67948 5.55577 1.94678 5.55577 2.48137V3.24501C5.55577 3.7796 5.55577 4.04691 5.67687 4.25109C5.78341 4.4307 5.95338 4.57673 6.16245 4.66825C6.40013 4.77228 6.71127 4.77228 7.33355 4.77228Z" stroke="black" stroke-width="2" stroke-linecap="round" stroke-linejoin="round"/>
</g>
<defs>
<clipPath id="clip0_166_117">
<rect width="20" height="21" fill="white"/>
</clipPath>
</defs>
</svg>
