<svg width="15" height="15" viewBox="0 0 15 15" fill="none" xmlns="http://www.w3.org/2000/svg">
<path d="M2.37469 12.125H3.93719C4.74969 12.125 5.49969 11.8125 6.06219 11.25L12.4997 4.8125C13.4372 3.875 13.4372 2.3125 12.4997 1.375C12.0622 0.875 11.4372 0.625 10.8122 0.625C10.1872 0.625 9.56219 0.875 9.06219 1.3125L2.62469 7.8125C2.06219 8.375 1.74969 9.1875 1.74969 10V11.5625C1.74969 11.875 2.06219 12.125 2.37469 12.125ZM2.99969 9.9375C2.99969 9.4375 3.18719 9 3.49969 8.6875L8.62469 3.5625L9.49969 4.375C9.62469 4.5 9.81219 4.5625 9.93719 4.5625C10.1247 4.5625 10.2497 4.5 10.3747 4.375C10.6247 4.125 10.6247 3.75 10.3747 3.5L9.49969 2.625L9.93719 2.1875C10.1872 2 10.4997 1.875 10.8122 1.875C11.1247 1.875 11.4372 2 11.6247 2.25C12.0622 2.6875 12.0622 3.5 11.6247 3.9375L5.18719 10.375C4.87469 10.6875 4.37469 10.875 3.93719 10.875H2.99969V9.9375Z" fill="#006FFF"/>
<path d="M13.75 13.125H1.25C0.875 13.125 0.625 13.375 0.625 13.75C0.625 14.125 0.875 14.375 1.25 14.375H13.75C14.125 14.375 14.375 14.125 14.375 13.75C14.375 13.375 14.125 13.125 13.75 13.125Z" fill="#006FFF"/>
</svg>
