<svg width="20" height="21" viewBox="0 0 20 21" fill="none" xmlns="http://www.w3.org/2000/svg">
<g clip-path="url(#clip0_166_939)">
<path d="M10 15C11.6569 15 13 13.6568 13 12C13 10.3431 11.6569 9 10 9C8.3431 9 7 10.3431 7 12C7 13.6568 8.3431 15 10 15Z" stroke="black" stroke-width="2" stroke-linecap="round" stroke-linejoin="round"/>
<path d="M1 9.56486C1 8.99046 1 8.70328 1.07403 8.43881C1.1396 8.20454 1.24737 7.9842 1.39203 7.78862C1.55534 7.56782 1.78202 7.39151 2.23539 7.03888L9.0177 1.76376C9.369 1.49051 9.5447 1.35388 9.7387 1.30136C9.9098 1.25502 10.0902 1.25502 10.2613 1.30136C10.4553 1.35388 10.631 1.49051 10.9823 1.76376L17.7646 7.03889C18.218 7.39151 18.4447 7.56782 18.608 7.78862C18.7526 7.9842 18.8604 8.20454 18.926 8.43881C19 8.70328 19 8.99046 19 9.56486V16.7998C19 17.9199 19 18.4799 18.782 18.9078C18.5903 19.2841 18.2843 19.5901 17.908 19.7818C17.4802 19.9998 16.9201 19.9998 15.8 19.9998H4.2C3.07989 19.9998 2.51984 19.9998 2.09202 19.7818C1.71569 19.5901 1.40973 19.2841 1.21799 18.9078C1 18.4799 1 17.9199 1 16.7998V9.56486Z" stroke="black" stroke-width="2" stroke-linecap="round" stroke-linejoin="round"/>
</g>
<defs>
<clipPath id="clip0_166_939">
<rect width="20" height="21" fill="white"/>
</clipPath>
</defs>
</svg>
