<svg width="20" height="21" viewBox="0 0 20 21" fill="none" xmlns="http://www.w3.org/2000/svg">
<g clip-path="url(#clip0_166_110)">
<path d="M2.72736 12.4092L4.15886 18.4215C4.19912 18.5905 4.21924 18.6751 4.24306 18.7489C4.4757 19.4701 5.0942 19.9771 5.81692 20.0393C5.89091 20.0456 5.97391 20.0456 6.1399 20.0456C6.34776 20.0456 6.4517 20.0456 6.53925 20.0367C7.40463 19.9485 8.08949 19.2294 8.17342 18.3208C8.18191 18.2289 8.18191 18.1197 8.18191 17.9015V4.29557M15.9092 11.9319C17.6665 11.9319 19.091 10.4362 19.091 8.59102C19.091 6.74589 17.6665 5.25011 15.9092 5.25011M8.40918 4.29557H5.00009C2.74074 4.29557 0.90918 6.21871 0.90918 8.59102C0.90918 10.9633 2.74074 12.8865 5.00009 12.8865H8.40918C10.015 12.8865 11.9794 13.7903 13.4949 14.6578C14.379 15.1638 14.8211 15.4169 15.1106 15.3796C15.3791 15.3451 15.5821 15.2185 15.7395 14.9875C15.9092 14.7385 15.9092 14.24 15.9092 13.2432V3.93885C15.9092 2.94202 15.9092 2.44361 15.7395 2.19451C15.5821 1.96352 15.3791 1.83695 15.1106 1.80242C14.8211 1.76518 14.379 2.01821 13.4949 2.52428C11.9794 3.39172 10.015 4.29557 8.40918 4.29557Z" stroke="black" stroke-width="2" stroke-linecap="round" stroke-linejoin="round"/>
</g>
<defs>
<clipPath id="clip0_166_110">
<rect width="20" height="21" fill="white"/>
</clipPath>
</defs>
</svg>
